<svg xmlns="http://www.w3.org/2000/svg" width="1100" height="620" viewBox="0 0 1100 620" role="img" aria-labelledby="title desc">
  <title id="title">Familia TCP/IP y modelo OSI</title>
  <desc id="desc">Diagrama comparativo entre la familia TCP/IP, el modelo OSI y su relación con Artify.</desc>
  <defs>
    <style>
      .title { font: 700 24px Arial, Helvetica, sans-serif; fill: #172033; }
      .subtitle { font: 400 15px Arial, Helvetica, sans-serif; fill: #526174; }
      .section { font: 700 20px Arial, Helvetica, sans-serif; fill: #172033; }
      .item { font: 400 15px Arial, Helvetica, sans-serif; fill: #334155; }
      .tag { font: 700 12px Arial, Helvetica, sans-serif; fill: #3f4f63; }
      .note { font: 400 15px Arial, Helvetica, sans-serif; fill: #3f4f63; }
    </style>
  </defs>
  <rect width="1100" height="620" fill="#e6edf5"/>
  <rect x="70" y="54" width="960" height="512" rx="8" fill="#f3f6fa" stroke="#c5ceda"/>
  <text x="110" y="104" class="title">Familia TCP/IP y modelo OSI</text>
  <text x="110" y="132" class="subtitle">Dos formas complementarias de comprender la transmisión y recepción de datos.</text>

  <rect x="118" y="176" width="404" height="268" rx="8" fill="#eef6ff" stroke="#b8d8f4"/>
  <text x="150" y="224" class="section">TCP/IP</text>
  <rect x="150" y="246" width="92" height="28" rx="14" fill="#dbeafe" stroke="#93c5fd"/>
  <text x="172" y="265" class="tag">USO REAL</text>
  <text x="150" y="306" class="item">IP: direccionamiento y enrutamiento</text>
  <text x="150" y="340" class="item">TCP: entrega confiable</text>
  <text x="150" y="374" class="item">UDP: transmisión rápida</text>
  <text x="150" y="408" class="item">HTTP/HTTPS y DNS: servicios web</text>

  <rect x="578" y="176" width="404" height="268" rx="8" fill="#eefbf4" stroke="#b8dfc8"/>
  <text x="610" y="224" class="section">Modelo OSI</text>
  <rect x="610" y="246" width="142" height="28" rx="14" fill="#dcfce7" stroke="#86efac"/>
  <text x="631" y="265" class="tag">REFERENCIA</text>
  <text x="610" y="306" class="item">Aplicación, presentación y sesión</text>
  <text x="610" y="340" class="item">Transporte y red</text>
  <text x="610" y="374" class="item">Enlace de datos y capa física</text>
  <text x="610" y="408" class="item">Permite analizar la comunicación por capas</text>

  <rect x="118" y="484" width="864" height="52" rx="8" fill="#eaf0f7" stroke="#c5ceda"/>
  <text x="150" y="514" class="note">En Artify, HTTP/HTTPS se ubica en la capa de aplicación y opera sobre la familia TCP/IP.</text>
</svg>
