<svg xmlns="http://www.w3.org/2000/svg" width="1100" height="620" viewBox="0 0 1100 620" role="img" aria-labelledby="title desc">
  <title id="title">Medios de transmisión guiados y no guiados</title>
  <desc id="desc">Diagrama que clasifica los medios de transmisión en guiados y no guiados, con ejemplos aplicables al acceso a Artify.</desc>
  <defs>
    <style>
      .title { font: 700 26px Arial, Helvetica, sans-serif; fill: #172033; }
      .subtitle { font: 400 16px Arial, Helvetica, sans-serif; fill: #64748b; }
      .section { font: 700 21px Arial, Helvetica, sans-serif; fill: #172033; }
      .item { font: 400 15px Arial, Helvetica, sans-serif; fill: #34495e; }
      .caption { font: 400 14px Arial, Helvetica, sans-serif; fill: #64748b; }
      .note { font: 400 15px Arial, Helvetica, sans-serif; fill: #475569; }
    </style>
  </defs>
  <rect width="1100" height="620" fill="#f6f8fb"/>
  <rect x="70" y="54" width="960" height="512" rx="8" fill="#ffffff" stroke="#d8dee8"/>
  <text x="110" y="104" class="title">Medios de transmisión</text>
  <text x="110" y="132" class="subtitle">Canales usados para transportar datos dentro de una red.</text>

  <rect x="118" y="176" width="404" height="284" rx="8" fill="#fff7ed" stroke="#fed7aa"/>
  <text x="150" y="224" class="section">Guiados</text>
  <text x="150" y="252" class="caption">Requieren un medio físico.</text>
  <line x1="150" y1="282" x2="470" y2="282" stroke="#fed7aa" stroke-width="2"/>
  <circle cx="162" cy="322" r="6" fill="#f97316"/>
  <text x="184" y="327" class="item">Cable de par trenzado</text>
  <circle cx="162" cy="360" r="6" fill="#f97316"/>
  <text x="184" y="365" class="item">Cable coaxial</text>
  <circle cx="162" cy="398" r="6" fill="#f97316"/>
  <text x="184" y="403" class="item">Fibra óptica</text>
  <text x="150" y="438" class="caption">Mayor estabilidad para redes internas.</text>

  <rect x="578" y="176" width="404" height="284" rx="8" fill="#eef6ff" stroke="#b8d8f4"/>
  <text x="610" y="224" class="section">No guiados</text>
  <text x="610" y="252" class="caption">Transmiten datos mediante ondas.</text>
  <line x1="610" y1="282" x2="930" y2="282" stroke="#b8d8f4" stroke-width="2"/>
  <circle cx="622" cy="322" r="6" fill="#2563eb"/>
  <text x="644" y="327" class="item">Wi-Fi</text>
  <circle cx="622" cy="360" r="6" fill="#2563eb"/>
  <text x="644" y="365" class="item">Bluetooth</text>
  <circle cx="622" cy="398" r="6" fill="#2563eb"/>
  <text x="644" y="403" class="item">Redes móviles, microondas o satélite</text>
  <text x="610" y="438" class="caption">Mayor movilidad para el usuario final.</text>

  <rect x="118" y="496" width="864" height="48" rx="8" fill="#f8fafc" stroke="#d8dee8"/>
  <text x="150" y="526" class="note">Artify requiere una conexión estable entre navegador, servidor, backend y base de datos.</text>
</svg>
